<?xml version="1.0" encoding="utf-8"?>
<!-- Generator: Adobe Illustrator 17.0.0, SVG Export Plug-In . SVG Version: 6.00 Build 0)  -->
<!DOCTYPE svg PUBLIC "-//W3C//DTD SVG 1.1//EN" "http://www.w3.org/Graphics/SVG/1.1/DTD/svg11.dtd">
<svg version="1.1" id="Layer_1" xmlns="http://www.w3.org/2000/svg" xmlns:xlink="http://www.w3.org/1999/xlink" x="0px" y="0px"
	 width="234px" height="56px" viewBox="0 0 234 56" enable-background="new 0 0 234 56" xml:space="preserve">
<g id="Page-1" sketch:type="MSPage">
	<g id="Spa-2" transform="translate(-10.000000, -3.000000)" sketch:type="MSArtboardGroup">
		<path id="Path-3" sketch:type="MSShapeGroup" fill="#010101" d="M36.489,24.496c0,0,7.399-4.414,7.399-9.858
			s-7.399-9.858-7.399-9.858s-7.399,4.414-7.399,9.858S36.489,24.496,36.489,24.496z M36.489,59c0,0,7.399-4.414,7.399-9.858
			c0-5.445-7.399-9.858-7.399-9.858s-7.399,4.414-7.399,9.858C29.09,54.586,36.489,59,36.489,59z M30.075,28.193
			c0,0-0.123-8.615-4.838-11.337S13,18.334,13,18.334s0.123,8.615,4.838,11.337C22.553,32.394,30.075,28.193,30.075,28.193z
			 M59.979,45.445c0,0-0.123-8.615-4.838-11.337s-12.237,1.479-12.237,1.479s0.123,8.615,4.838,11.337S59.979,45.445,59.979,45.445z
			 M30.075,35.586c0,0-7.522-4.201-12.237-1.479S13,45.445,13,45.445s7.522,4.201,12.237,1.479S30.075,35.586,30.075,35.586z
			 M59.979,18.334c0,0-7.522-4.201-12.237-1.479s-4.838,11.337-4.838,11.337s7.522,4.201,12.237,1.479
			C59.856,26.949,59.979,18.334,59.979,18.334z"/>
	</g>
</g>
<g>
	<path d="M75.752,14.904h4.985v23.83h14.914v4.539H75.752V14.904z"/>
	<path d="M117.817,43.76c-8.713,0-14.792-6.605-14.792-14.63c0-8.025,6.16-14.712,14.874-14.712c8.713,0,14.793,6.606,14.793,14.631
		C132.691,37.072,126.531,43.76,117.817,43.76z M117.817,18.998c-5.633,0-9.564,4.499-9.564,10.051
		c0,5.552,4.012,10.131,9.646,10.131c5.633,0,9.564-4.498,9.564-10.05C127.463,23.577,123.451,18.998,117.817,18.998z"/>
	<path d="M154.247,43.273h-5.025V19.524h-8.997v-4.62h23.02v4.62h-8.997V43.273z"/>
	<path d="M197.408,30.994c0,8.47-4.782,12.725-12.199,12.725c-7.375,0-12.076-4.255-12.076-12.482V14.904h4.984v16.13
		c0,5.269,2.715,8.105,7.174,8.105c4.417,0,7.133-2.675,7.133-7.903V14.904h4.984V30.994z"/>
	<path d="M220.266,26.819c5.998,1.459,9.119,3.607,9.119,8.349c0,5.35-4.175,8.511-10.133,8.511c-4.336,0-8.43-1.499-11.834-4.539
		l3-3.566c2.715,2.351,5.43,3.688,8.956,3.688c3.08,0,5.025-1.419,5.025-3.607c0-2.066-1.135-3.161-6.403-4.377
		c-6.039-1.459-9.443-3.242-9.443-8.511c0-4.944,4.053-8.268,9.687-8.268c4.134,0,7.417,1.256,10.294,3.566l-2.675,3.769
		c-2.554-1.905-5.106-2.918-7.7-2.918c-2.918,0-4.62,1.5-4.62,3.404C213.538,24.55,214.835,25.522,220.266,26.819z"/>
</g>
</svg>
