<svg xmlns="http://www.w3.org/2000/svg" viewBox="0 0 1140.37 283.99"><defs><style>.cls-1{fill:#444;}</style></defs><g id="Layer_2" data-name="Layer 2"><g id="Layer_1-2" data-name="Layer 1"><path class="cls-1" d="M114.53,12.82c41.33-.82,63.2,21.13,63.2,49.94,0,28.56-24.15,46.19-72,48.27-3.2.12-3.44,1.92.11,2.08,33.11,1.64,49.39,6.93,63,34.2l21.27,42.54c3.55,7.09,6.91,11.17,12.42,13,10.61,3.56,15.85-11.3,20.25-5.31.72,1-3,11.93-19.35,18.87-17.46,7.37-47.4,6.18-61.4-11.92-14.23-18.38-23.71-56.51-41.36-76.17C95.32,122.37,89.24,116,81.37,116h-6.2v65c0,27.81,14,23.06,14,28.41,0,3.24-2.07,3.84-6.2,3.84H12.31c-4.74,0-6.55-.82-6.55-3,0-8.51,12.06.78,12.06-29.82V50c0-3.85-.29-10.55-.29-11.72C17.53,14.49,0,20.94,0,13.76,0,10.52,2.07,9.6,6.2,9.6,25.09,12.31,46,14.14,114.53,12.82ZM75.17,108.54H85.81c21,0,28.38-12.37,28.38-44,0-32.49-7.09-42.86-25.42-42.86H75.17Z"/><path class="cls-1" d="M243.63,144.79c0,31.17,19.68,44.26,41.1,42.34,27.44-2.39,36.33-24.46,41.64-24.46,1.49,0,2.68.88,2.68,2.93,0,2.93-2.07,11.52-8.28,21.32-12.42,19.48-31.93,30.44-55.29,30.44-39.6,0-69.48-29.88-69.48-68.57,0-46.07,29.43-71.23,69-71.23,39.8,0,61.35,31.46,61.65,67.23Zm38.11-22.62c0-25.09-5-36.11-16.85-36.11-13.89,0-21,12.19-21,39.68v7h38.26C282.17,130.11,281.74,122.49,281.74,122.17Z"/><path class="cls-1" d="M458.09,189.05c0,6.21,1.77,9.18,5.62,9.18,6.81,0,16.43-11.6,19.8-14.71,1.47,0,2.55,2.83,2.55,4.59,0,7.71-31.65,29.25-53.82,29.25-12.69,0-23.22-5-23.22-18.07-18,12.45-34,18.07-45.51,18.07-20.11,0-33.12-11.86-33.12-28.71,0-23.91,23.06-28.05,55.29-41.06L409,138.43V103.69c0-9.38-2.23-17.57-12.22-17.57-11.23,0-14.6,6.8-14.6,16.25,0,5,3.42,11.78,3.42,16.53,0,10.62-10.37,18.43-25.76,18.43-14.21,0-20.94-11.47-20.94-22.39,0-21,19.44-38.26,62-38.26,26.62,0,57.17,7.87,57.17,40.65Zm-59.41-38.78c-10.94,5.6-15.36,10.92-15.36,27.76,0,13.89,4.42,20.69,10.94,20.69,3.54,0,8.86-3,14.76-8.55V145Z"/><path class="cls-1" d="M1130.61,123.34c0,2.65-.57,4.16-3,4.16-4.41,0-4.72-6.52-9.73-16.28-9.45-18-23-26-37.54-26-13.89,0-23,7.15-23,15.39,0,11.24,13,14.49,33.69,21.29,31.36,10.36,49.34,19.53,49.34,44.65,0,27.18-22.95,50.85-62,50.85-21.2,0-35.6-10.32-52.68-3.05-15.12,7.13-1.48-5.64-1.48-49.34,0-3.56.84-5.32,3.52-5.32,4.45,0,3.53,4.44,6.8,13.91,8.88,24.82,26.37,35.85,46.42,35.85,14.17,0,23.94-6.84,23.94-16.89,0-11-8.86-15.08-25.42-20.69-33.69-11.52-56.15-18.93-56.15-46.44,0-26,22.18-47,58.83-47,14.45,0,33.6,7.21,48,2.14C1130.16,94.06,1130.61,120.69,1130.61,123.34Z"/><path class="cls-1" d="M645.71,188c-4.44,0-11.9,10.27-18.69,10.27-3.85,0-5.62-3-5.62-9.18l.05-189c-41.83,13.44-62.2,3.68-62.2,11.05,0,8,12.82-4.82,12.82,20.28V80.48a117.44,117.44,0,0,0-21-2.36c-42.85,0-73.9,33.42-73.9,79.82,0,36.06,21,59.42,47.59,59.42,15.94,0,30.7-6.51,47.23-19.77v1.7c0,13.1,10.5,18.07,23.2,18.07,22.16,0,52.87-19.05,52.87-26.76C648.07,188.83,647.19,188,645.71,188Zm-90.19,8.68c-16.86,0-27.79-21-27.79-61.46,0-33.41,8.57-50.25,24.83-50.25,13.3,0,19.51,10.64,19.51,31.64,0,0-.05,55.77-.07,72.45C566.71,194,561.11,196.64,555.52,196.64Z"/><path class="cls-1" d="M674.31,60.62a28.25,28.25,0,0,0,28.07-28.09A27.86,27.86,0,0,0,674.31,4.47a28.24,28.24,0,0,0-28.07,28.06C646.24,47.61,659.23,60.62,674.31,60.62ZM725.15,188c-4.53,0-12.85,10.27-19.8,10.27-3.94,0-5.76-3-5.76-9.18l0-108.88C653.5,96.39,637.2,88.55,637.2,95.6c0,8,10.2-2.3,10.2,12.63,0,0,.22,88.89.22,91.06,0,13.1,12.55,18.07,25.52,18.07,22.69,0,54.41-19.05,54.41-26.76C727.55,188.83,726.64,188,725.15,188Z"/><path class="cls-1" d="M949.48,78.69c40.24,1.79,61.86,22,61.86,46.23,0,15.08-4.55,28.68-18,37.4-16.26,10.49-38.22,14.65-57.46,17.32-13.58,2.05-20.06,5-20.06,9.7,0,8,10,4.54,31.89,5.14,24,.55,41.67.55,52.94,4.69,13.57,5,22.73,18.35,22.73,35.47,0,36.48-33.35,49.35-78,49.35-34.13,0-70.06-8.25-70.06-30.13,0-11,7.69-18.65,22.16-22.74a24.8,24.8,0,0,1-13.27-22.47c0-21,17.4-35,44.13-37.22-35-3.44-49.68-23.3-49.68-45.16,0-24.53,23.33-45.47,62.95-47.58m-.57.82c.06-5.32-.76-15.3-.76-20.34,0-22.77,13.73-41.66,35.24-41.66,11.28,0,20.34,8.31,20.34,19.9S987.72,58.6,975.65,58.6c-7.12,0-12.16-1.86-14.1-1.86-12.14,0-12,14.05-12,22.14v.63M893.9,248.87c0,15.68,23.37,26.59,50.2,26.59,20.93,0,53-7.13,53-22.78,0-10.07-9.19-15.05-27.77-15.39-34.61-.6-55.9-.3-63.89-3.25C898,237.89,893.9,241.47,893.9,248.87Zm35-127c0,28.41,3.47,40.49,16.5,40.49,13.28,0,17.09-13,17.09-41.37,0-26.29-5-34.32-17.09-34.32C932.94,86.66,928.89,96.17,928.89,121.86Z"/><path class="cls-1" d="M898.87,181c-4.33,3.05-24.15,17.2-31.11,17.2-3.93,0-6.44-3-6.44-9.18l-.08-67.31c-.21-29.35-12.32-43.62-38.69-43.62-16.86,0-31.65,7.09-49.12,19.53V81.06C729.39,96.74,713,88.23,713,95.6c0,9,11.36-5.89,11.36,20.75V208c0,2.84,1.27,5.26,4.25,5.26h45.53a97,97,0,0,1-.7-11.71v-95c7.1-6.52,14.5-10,21-10,12.45,0,17.46,8.57,17.46,26,0,0,.25,75.77.25,76.83,0,13.1,10.49,18.07,23.46,18.07,22.65,0,57.48-20,57.48-27.64C893.09,188,900.11,180.18,898.87,181Z"/></g></g></svg>